<svg width="104" height="22" viewBox="0 0 104 22" fill="none" xmlns="http://www.w3.org/2000/svg">
<path d="M0.644531 22L7.70508 0.789062H15.293L22.3242 22H16.3184L15.0439 17.8398H7.93945L6.67969 22H0.644531ZM13.7549 13.6211L11.5723 6.50195H11.3965L9.22852 13.6211H13.7549ZM24.0256 0.789062H33.049C34.6213 0.789062 35.9982 1.07715 37.1799 1.65332C38.3713 2.22949 39.2893 3.05957 39.9338 4.14355C40.5783 5.21777 40.9006 6.49219 40.9006 7.9668C40.9006 9.41211 40.5832 10.6523 39.9484 11.6875C39.3234 12.7129 38.4299 13.499 37.2678 14.0459L41.6037 22H35.5393L31.7746 14.9395H29.592V22H24.0256V0.789062ZM31.76 10.5742C33.9768 10.5742 35.0803 9.70508 35.0705 7.9668C35.0803 7.04883 34.7971 6.37012 34.2209 5.93066C33.6545 5.48145 32.8342 5.25195 31.76 5.24219H29.592V10.5742H31.76ZM42.3969 0.789062H60.6781V5.30078H54.2914V22H48.7836V5.30078H42.3969V0.789062ZM68.0924 22H62.526V0.789062H68.0924V22ZM70.5555 0.789062H76.1219V17.4883H84.7645V22H70.5555V0.789062ZM88.3702 0.789062L92.5889 9.46094H92.7647L97.0127 0.789062H103.253L95.46 15.2031V22H89.9229V15.2031L82.1299 0.789062H88.3702Z" fill="black"/>
</svg>
